/* XPM */
static char *cm_notsaved[] = {
"16 16 4 1 0 0",
"  c #000000",
"! c #F8FB25",
"# c #FFFFFF",
"$ c None",
"$$$$$$$$$$$$!!!!",
"$$$$$$$$$$$$!!!!",
"$$$$$$$$$$$$!!!!",
"$$$$$$$$$$$$!!!!",
"$$$$$$$$$$$$!!!!",
"$$$$$$$$$$$$!!!!",
"$$$$$$$$$$$$!!!!",
"$$$$$$$$$$$$!!!!",
"$$$$$$$$$$$$!!!!",
"$$$$$$$$$$$$!!!!",
"$$$$$$$$$$$$!!!!",
"$$$$$$$$$$$$!!!!",
"$$$$$$$$$$$$!!!!",
"$$$$$$$$$$$$!!!!",
"$$$$$$$$$$$$!!!!",
"$$$$$$$$$$$$!!!!"
};
