/* XPM */
static char *cm_saved[] = {
"16 16 4 1 0 0",
"  c #000000",
"! c #A5F12E",
"# c #FFFFFF",
"$ c None",
"$$$$$$$$$$$$!!!!",
"$$$$$$$$$$$$!!!!",
"$$$$$$$$$$$$!!!!",
"$$$$$$$$$$$$!!!!",
"$$$$$$$$$$$$!!!!",
"$$$$$$$$$$$$!!!!",
"$$$$$$$$$$$$!!!!",
"$$$$$$$$$$$$!!!!",
"$$$$$$$$$$$$!!!!",
"$$$$$$$$$$$$!!!!",
"$$$$$$$$$$$$!!!!",
"$$$$$$$$$$$$!!!!",
"$$$$$$$$$$$$!!!!",
"$$$$$$$$$$$$!!!!",
"$$$$$$$$$$$$!!!!",
"$$$$$$$$$$$$!!!!"
};
